<?xml version="1.0" encoding="UTF-8"?>
<svg width="26px" height="20px" viewBox="0 0 26 20" version="1.1" xmlns="http://www.w3.org/2000/svg" xmlns:xlink="http://www.w3.org/1999/xlink">
    <!-- Generator: Sketch 48.2 (47327) - http://www.bohemiancoding.com/sketch -->
    <title>Shape</title>
    <desc>Created with Sketch.</desc>
    <defs></defs>
    <g id="Teste-2-Copy-2" stroke="none" stroke-width="1" fill="none" fill-rule="evenodd" transform="translate(-1194.000000, -792.000000)">
        <path d="M1216.29771,792.902421 L1197.02331,792.902421 C1195.41711,792.902421 1194.14039,794.179144 1194.14039,795.785344 L1194.14039,808.346651 C1194.14039,809.952851 1195.41711,811.229574 1197.02331,811.229574 L1216.25653,811.229574 C1217.86273,811.229574 1219.13945,809.952851 1219.13945,808.346651 L1219.13945,795.785344 C1219.18063,794.179144 1217.86273,792.902421 1216.29771,792.902421 Z M1197.02331,794.549806 L1216.25653,794.549806 C1216.38008,794.549806 1216.50363,794.549806 1216.62719,794.590991 L1206.66051,802.251329 L1196.69384,794.590991 C1196.81739,794.549806 1196.94094,794.549806 1197.02331,794.549806 Z M1217.53325,808.305467 C1217.53325,809.005605 1216.99785,809.541005 1216.29771,809.541005 L1197.02331,809.541005 C1196.32317,809.541005 1195.78777,809.005605 1195.78777,808.305467 L1195.78777,795.950083 L1206.66051,804.310559 L1217.53325,795.991267 L1217.53325,808.305467 Z" id="Shape" fill="#FFFFFF" fill-rule="nonzero"></path>
    </g>
</svg>