<?xml version="1.0" encoding="UTF-8"?>
<svg width="200px" height="41px" viewBox="0 0 200 41" version="1.1" xmlns="http://www.w3.org/2000/svg" xmlns:xlink="http://www.w3.org/1999/xlink">
    <!-- Generator: Sketch 48.2 (47327) - http://www.bohemiancoding.com/sketch -->
    <title>Page 1</title>
    <desc>Created with Sketch.</desc>
    <defs>
        <polygon id="path-1" points="0.101923287 0.0380714935 18.4912449 0.0380714935 18.4912449 20.1637569 0.101923287 20.1637569"></polygon>
        <polygon id="path-3" points="0 0.0176098189 49.5045515 0.0176098189 49.5045515 40.0506501 0 40.0506501"></polygon>
        <linearGradient x1="0%" y1="100%" x2="110.573382%" y2="-10.772499%" id="linearGradient-5">
            <stop stop-color="#12F6DE" stop-opacity="0.742640399" offset="0%"></stop>
            <stop stop-color="#289AFA" stop-opacity="0.644757699" offset="48.2933909%"></stop>
            <stop stop-color="#7A2F95" stop-opacity="0.683763587" offset="100%"></stop>
        </linearGradient>
        <path d="M19.306673,37.7773472 L5.48810786,28.4732851 L17.8651613,22.5866187 L19.306673,37.7773472 Z M27.7793335,16.6745505 L18.7489249,20.1976052 L18.4908553,17.4769661 L27.7793335,16.6745505 Z M2.89260756,17.6742584 L16.2899396,6.25592713 L17.2648691,16.3991828 L2.89260756,17.6742584 Z M34.0052616,14.9162179 L18.3783395,16.3014717 L16.9581777,0.397779317 L-7.79195528e-05,19.0747844 L17.3896962,17.5721838 L17.6784661,20.6154098 L0.895217742,27.1633015 L20.6225784,39.9469392 L18.9272048,22.0815441 L34.0052616,14.9162179 Z M29.6967779,31.4547988 L40.0343649,14.6416294 L47.559212,20.3045108 L29.6967779,31.4547988 Z M26.334705,2.84367408 L42.2857725,8.80654577 L39.7248685,12.9587229 L26.334705,2.84367408 Z M26.2608373,2.78772784 L26.4855573,2.88532784 L26.3108616,2.83632784 L26.2608373,2.78772784 Z M49.4517221,20.3066926 L49.4510987,20.3063809 L40.642605,13.6520511 L44.7997689,6.89081565 L44.7888602,6.88769887 L44.8022624,6.86588139 L44.4109504,6.78032572 L20.6020077,0.0175318994 L39.114135,13.9490804 L23.4876804,40.050728 L49.4501637,20.3077834 L49.5045515,20.3465874 L49.4517221,20.3066926 Z" id="path-6"></path>
    </defs>
    <g id="Teste-2-Copy-2" stroke="none" stroke-width="1" fill="none" fill-rule="evenodd" transform="translate(-540.000000, -213.000000)">
        <g id="Page-1" transform="translate(540.000000, 213.544213)">
            <path d="M84.1746851,11.7300406 C85.3453485,12.9014832 85.9309918,14.5111453 85.9309918,16.559962 L85.9309918,29.9717871 C85.9309918,30.2381162 85.7975936,30.3710469 85.5317321,30.3710469 L84.2544748,30.3710469 C83.9881457,30.3710469 83.8553708,30.2381162 83.8553708,29.9717871 L83.8553708,16.959066 C83.8553708,15.3892987 83.3962688,14.1449234 82.4782206,13.2268753 C81.5601725,12.3088271 80.3689383,11.8498809 78.905765,11.8498809 C77.3621786,11.8498809 76.1178034,12.3025935 75.1735742,13.2070837 C74.2287217,14.1118855 73.7565292,15.3363134 73.7565292,16.8792764 L73.7565292,29.9717871 C73.7565292,30.2381162 73.623131,30.3710469 73.3574253,30.3710469 L72.080168,30.3710469 C71.813839,30.3710469 71.6809082,30.2381162 71.6809082,29.9717871 L71.6809082,16.959066 C71.6809082,15.3892987 71.2280398,14.1449234 70.3237054,13.2268753 C69.4187477,12.3088271 68.2343705,11.8498809 66.7711972,11.8498809 C65.2008065,11.8498809 63.9572104,12.3025935 63.0391623,13.2070837 C62.1209583,14.1118855 61.6620121,15.3363134 61.6620121,16.8792764 L61.6620121,29.9717871 C61.6620121,30.2381162 61.528458,30.3710469 61.2627523,30.3710469 L59.9454444,30.3710469 C59.6791153,30.3710469 59.5463404,30.2381162 59.5463404,29.9717871 L59.5463404,10.6524132 C59.5463404,10.3867076 59.6791153,10.2531534 59.9454444,10.2531534 L61.2627523,10.2531534 C61.528458,10.2531534 61.6620121,10.3867076 61.6620121,10.6524132 L61.6620121,12.4484589 C61.6620121,12.5022234 61.6881931,12.5421182 61.7418017,12.5682992 C61.794787,12.5951035 61.8346818,12.582013 61.8614862,12.5284044 C62.4203252,11.6770553 63.1719372,11.0384267 64.1167897,10.6123626 C65.0610188,10.1870777 66.1325685,9.97373392 67.3300362,9.97373392 C68.7134199,9.97373392 69.9046541,10.2731008 70.9026477,10.8718347 C71.9004855,11.4705685 72.6519417,12.315684 73.1577954,13.4065577 C73.2109365,13.5131517 73.2776357,13.5262422 73.3574253,13.4464526 C73.9162643,12.3025935 74.7275627,11.4375306 75.7922555,10.8518873 C76.8563249,10.2668673 78.0936874,9.97373392 79.5044988,9.97373392 C81.4467216,9.97373392 83.0033984,10.5593773 84.1746851,11.7300406" id="Fill-1" fill="#C8C8C9"></path>
            <path d="M100.676052,27.6367407 C101.673889,26.8520908 102.318752,25.8205918 102.611885,24.5430228 C102.797801,23.8247604 102.89146,22.4145723 102.89146,20.3119911 C102.89146,18.1833848 102.811515,16.7731967 102.651936,16.0809594 C102.358802,14.7773653 101.713784,13.7396327 100.715946,12.9674499 C99.7181087,12.1960463 98.5005378,11.809877 97.0635454,11.809877 C95.626553,11.809877 94.4153714,12.1960463 93.4312475,12.9674499 C92.4463443,13.7396327 91.8077157,14.7773653 91.5153615,16.0809594 C91.3288221,16.9061274 91.235942,18.3161597 91.235942,20.3119911 C91.235942,22.3079784 91.3288221,23.7186339 91.5153615,24.5430228 C91.8077157,25.8473961 92.4463443,26.8852846 93.4312475,27.6566881 C94.4153714,28.4288709 95.626553,28.8144169 97.0635454,28.8144169 C98.4737334,28.8144169 99.6782139,28.422014 100.676052,27.6367407 M92.2736746,29.213365 C90.9426528,28.229241 90.0383185,26.9120889 89.5594249,25.2617528 C89.2661357,24.1978392 89.1202703,22.5342567 89.1202703,20.2720963 C89.1202703,18.0105592 89.2661357,16.3603789 89.5594249,15.3224905 C90.0383185,13.6729335 90.9364192,12.3624825 92.2537272,11.3908257 C93.5708793,10.4197922 95.1875542,9.93373002 97.1034402,9.93373002 C98.9657175,9.93373002 100.569302,10.4264933 101.913414,11.4107731 C103.256903,12.3955204 104.155004,13.699582 104.607716,15.3224905 C104.767452,15.9349381 104.873578,16.619851 104.927031,17.3783199 C104.980016,18.136633 105.006976,19.1014329 105.006976,20.2720963 C105.006976,21.4965241 104.980016,22.4812714 104.927031,23.2258707 C104.873578,23.9712491 104.767452,24.6499284 104.607716,25.2617528 C104.155004,26.9120889 103.256903,28.229241 101.913414,29.213365 C100.569302,30.1982681 98.9527828,30.690408 97.0635454,30.690408 C95.2006447,30.690408 93.6039172,30.1982681 92.2736746,29.213365" id="Fill-3" fill="#C8C8C9"></path>
            <path d="M121.088995,11.849803 C122.339604,13.1008793 122.965142,14.7505921 122.965142,16.7994088 L122.965142,29.9717092 C122.965142,30.2380383 122.831744,30.3711249 122.566038,30.3711249 L121.24873,30.3711249 C120.982401,30.3711249 120.849626,30.2380383 120.849626,29.9717092 L120.849626,17.1985128 C120.849626,15.6287455 120.370733,14.3446312 119.412634,13.3466376 C118.454691,12.3487998 117.217173,11.849803 115.700391,11.849803 C114.077015,11.849803 112.772953,12.3357093 111.788518,13.3067428 C110.803926,14.2783996 110.311786,15.5489558 110.311786,17.118879 L110.311786,29.9717092 C110.311786,30.2380383 110.178232,30.3711249 109.912526,30.3711249 L108.595218,30.3711249 C108.329045,30.3711249 108.19627,30.2380383 108.19627,29.9717092 L108.19627,10.6523353 C108.19627,10.3866296 108.329045,10.2532314 108.595218,10.2532314 L109.912526,10.2532314 C110.178232,10.2532314 110.311786,10.3866296 110.311786,10.6523353 L110.311786,12.6082719 C110.311786,12.6880615 110.331734,12.7348133 110.371784,12.7480596 C110.411523,12.7617734 110.444561,12.741826 110.471365,12.6880615 C111.056385,11.8099082 111.834802,11.1382416 112.806614,10.6722827 C113.777648,10.207103 114.888313,9.97381184 116.139545,9.97381184 C118.188362,9.97381184 119.838075,10.59935 121.088995,11.849803" id="Fill-5" fill="#C8C8C9"></path>
            <path d="M128.230213,19.0745663 C128.230213,19.1813161 128.283199,19.2343013 128.389637,19.2343013 L139.526367,19.2343013 C139.632493,19.2343013 139.686102,19.1813161 139.686102,19.0745663 C139.686102,17.7443237 139.619247,16.7464859 139.486472,16.080897 C139.193494,14.8036397 138.55471,13.7727641 137.570586,12.987335 C136.585683,12.2028409 135.375125,11.8099705 133.938132,11.8099705 C132.50114,11.8099705 131.303672,12.1889712 130.345573,12.947596 C129.38763,13.7059091 128.775183,14.7106038 128.509633,15.9610568 C128.376235,16.4670663 128.283199,17.504799 128.230213,19.0745663 M137.510744,27.9559927 C138.401988,27.3840632 139.100458,26.5925564 139.606156,25.5811606 C139.739087,25.3416359 139.911913,25.2754043 140.125101,25.3815307 L141.162833,25.9004749 C141.402514,26.0337174 141.468589,26.2066988 141.362619,26.4192633 C140.776975,27.7234808 139.851915,28.7612134 138.588371,29.532617 C137.324048,30.3047997 135.84046,30.6903457 134.137606,30.6903457 C132.274706,30.6903457 130.691224,30.2381006 129.38763,29.3331429 C128.083569,28.4288086 127.192325,27.1914461 126.713275,25.6210554 C126.499932,24.9560899 126.354066,24.2108673 126.274277,23.3856993 C126.194331,22.5611546 126.154436,21.5232661 126.154436,20.2721898 C126.154436,18.9685957 126.174384,17.9838484 126.214279,17.3182595 C126.254173,16.6534499 126.340352,16.0410022 126.473751,15.4821632 C126.899191,13.8056461 127.771111,12.462313 129.088263,11.4506055 C130.405571,10.4396773 132.022246,9.93382353 133.938132,9.93382353 C136.11988,9.93382353 137.863096,10.4995195 139.167158,11.630288 C140.470752,12.7616799 141.282673,14.3247462 141.602144,16.3204218 C141.681777,16.8262755 141.734918,17.4181524 141.761723,18.0968317 C141.787904,18.7751993 141.801618,19.6203148 141.801618,20.6313989 C141.801618,20.897728 141.668063,21.0306587 141.402514,21.0306587 L128.389637,21.0306587 C128.283199,21.0306587 128.230213,21.0841115 128.230213,21.190238 C128.230213,22.8935594 128.296289,24.0243279 128.429687,24.583167 C128.722197,25.8873844 129.380929,26.9182601 130.405571,27.6765732 C131.42959,28.4350421 132.726795,28.8143545 134.297497,28.8143545 C135.547794,28.8143545 136.618721,28.5285456 137.510744,27.9559927" id="Fill-7" fill="#C8C8C9"></path>
            <path d="M144.440363,37.9549882 L144.440363,36.9172556 C144.440363,36.6509265 144.533399,36.5179958 144.719783,36.5179958 L144.999202,36.5179958 C146.010286,36.4911915 146.801637,36.3247553 147.37419,36.018999 C147.94612,35.7127751 148.43826,35.1470792 148.851233,34.3226903 C149.263272,33.4973664 149.749178,32.2201091 150.308017,30.4907625 C150.361158,30.3840127 150.361158,30.3048465 150.308017,30.251082 L143.48242,10.6923392 L143.442525,10.5326041 C143.442525,10.3468439 143.56221,10.2531846 143.801579,10.2531846 L145.158782,10.2531846 C145.398306,10.2531846 145.558197,10.3597786 145.637987,10.5724989 L151.306011,27.4970933 C151.332192,27.5505461 151.372087,27.5768829 151.425695,27.5768829 C151.478836,27.5768829 151.518731,27.5505461 151.545536,27.4970933 L157.05398,10.5724989 C157.13377,10.3597786 157.293505,10.2531846 157.53303,10.2531846 L158.890077,10.2531846 C159.182587,10.2531846 159.289181,10.3998292 159.209391,10.6923392 L151.66522,32.4066485 C151.052772,34.1361509 150.480999,35.4134082 149.948808,36.2385763 C149.416306,37.063121 148.784534,37.62196 148.05287,37.9150934 C147.320582,38.2076034 146.302796,38.354248 144.999202,38.354248 L144.719783,38.354248 C144.533399,38.354248 144.440363,38.2208497 144.440363,37.9549882" id="Fill-9" fill="#C8C8C9"></path>
            <path d="M168.837864,14.6553744 C168.195339,15.1405015 167.743405,15.8149732 167.481752,16.6798802 C167.324354,17.1258918 167.219163,17.7020289 167.167112,18.4095385 C167.114127,18.5410667 167.167112,18.6062074 167.324354,18.6062074 L175.304563,18.6062074 C175.435468,18.6062074 175.501076,18.5410667 175.501076,18.4095385 C175.448247,17.7548584 175.369704,17.2566408 175.265136,16.9158206 C175.029351,15.9723707 174.56386,15.238836 173.869752,14.7142816 C173.175022,14.1905064 172.303414,13.9280733 171.255551,13.9280733 C170.285609,13.9280733 169.479765,14.1708706 168.837864,14.6553744 M180.139783,20.2965942 L180.100512,21.5154118 C180.100512,21.8297393 179.94327,21.986981 179.628787,21.986981 L167.324354,21.986981 C167.192826,21.986981 167.127685,22.0527451 167.127685,22.1834941 C167.206384,23.0482453 167.324354,23.6380963 167.481752,23.9525796 C168.110562,25.8394795 169.643708,26.7964874 172.081031,26.8222009 C173.862895,26.8222009 175.278226,26.0888221 176.326712,24.6208177 C176.431124,24.463576 176.56234,24.3850331 176.719738,24.3850331 C176.82415,24.3850331 176.916407,24.4243046 176.99495,24.5028475 L179.432118,26.5078734 C179.668058,26.6912961 179.707329,26.9008996 179.550088,27.1366842 C178.737543,28.2903611 177.656487,29.1809816 176.307076,29.8097924 C174.956886,30.4389149 173.456935,30.7533982 171.805819,30.7533982 C169.761678,30.7533982 168.025163,30.2950754 166.597053,29.3776506 C165.16832,28.4605374 164.126692,27.1761115 163.4717,25.5249962 C162.868602,24.1098213 162.567833,22.1442226 162.567833,19.6282003 C162.567833,18.1086132 162.724919,16.8765492 163.039558,15.9329434 C163.563333,14.098873 164.552911,12.6505043 166.007514,11.5890842 C167.46196,10.527664 169.211254,9.99687603 171.255551,9.99687603 C176.418189,9.99687603 179.327238,12.6966327 179.982697,18.0950551 C180.087109,18.7505144 180.139783,19.4845166 180.139783,20.2965942" id="Fill-11" fill="#D3D3D3"></path>
            <g id="Group-15" transform="translate(180.773362, 10.267771)">
                <mask id="mask-2" fill="white">
                    <use xlink:href="#path-1"></use>
                </mask>
                <g id="Clip-14"></g>
                <path d="M0.139896765,19.9865679 C0.0741326625,19.8684418 0.0937683898,19.7303684 0.198959786,19.5729709 L6.57916861,10.1994045 C6.63168638,10.1205499 6.63168638,10.042007 6.57916861,9.96315245 L0.198959786,0.628857543 C0.14597449,0.524289503 0.120261038,0.432032752 0.120261038,0.353334004 C0.120261038,0.143418729 0.251321726,0.0380714935 0.514066457,0.0380714935 L4.37373358,0.0380714935 C4.61014151,0.0380714935 4.7934083,0.143418729 4.92524818,0.353334004 L9.02116739,6.41859199 C9.07337349,6.47142145 9.12573543,6.4971349 9.17872073,6.4971349 C9.23092683,6.4971349 9.27035412,6.47142145 9.29684677,6.41859199 L13.3929218,0.353334004 C13.5239825,0.143418729 13.7078727,0.0380714935 13.9441247,0.0380714935 L18.0796271,0.0380714935 C18.2630497,0.0380714935 18.3878768,0.0972903536 18.4537968,0.215416396 C18.5190934,0.333698277 18.4993018,0.471304207 18.3947337,0.628857543 L12.0143691,9.96315245 C11.9878764,10.042007 11.9878764,10.1205499 12.0143691,10.1994045 L18.3947337,19.5729709 C18.4470957,19.6781623 18.4734325,19.7697957 18.4734325,19.8484944 C18.4734325,20.0591889 18.3417485,20.1637569 18.0796271,20.1637569 L14.21996,20.1637569 C13.983552,20.1637569 13.7996619,20.0591889 13.6686012,19.8484944 L9.57237031,13.7833923 C9.5460335,13.7310303 9.5066062,13.7046935 9.4544001,13.7046935 C9.40157065,13.7046935 9.34920871,13.7310303 9.29684677,13.7833923 L5.20092756,19.8484944 C5.06908767,20.0591889 4.88566505,20.1637569 4.64941296,20.1637569 L0.514066457,20.1637569 C0.330176313,20.1637569 0.20519335,20.1046939 0.139896765,19.9865679" id="Fill-13" fill="#D3D3D3" mask="url(#mask-2)"></path>
            </g>
            <g id="Group-18" transform="translate(0.000000, 0.138229)">
                <mask id="mask-4" fill="white">
                    <use xlink:href="#path-3"></use>
                </mask>
                <g id="Clip-17"></g>
                <g id="Fill-16" mask="url(#mask-4)">
                    <use fill="#FFFFFF" xlink:href="#path-6"></use>
                    <use fill="url(#linearGradient-5)" xlink:href="#path-6"></use>
                    <use fill="url(#linearGradient-5)" xlink:href="#path-6"></use>
                </g>
            </g>
        </g>
    </g>
</svg>